<svg xmlns="http://www.w3.org/2000/svg" width="69.969" height="70" viewBox="0 0 69.969 70">
  <metadata><?xpacket begin="﻿" id="W5M0MpCehiHzreSzNTczkc9d"?>
<x:xmpmeta xmlns:x="adobe:ns:meta/" x:xmptk="Adobe XMP Core 5.6-c142 79.160924, 2017/07/13-01:06:39        ">
   <rdf:RDF xmlns:rdf="http://www.w3.org/1999/02/22-rdf-syntax-ns#">
      <rdf:Description rdf:about=""/>
   </rdf:RDF>
</x:xmpmeta>
                                                                                                    
                                                                                                    
                                                                                                    
                                                                                                    
                                                                                                    
                                                                                                    
                                                                                                    
                                                                                                    
                                                                                                    
                                                                                                    
                                                                                                    
                                                                                                    
                                                                                                    
                                                                                                    
                                                                                                    
                                                                                                    
                                                                                                    
                                                                                                    
                                                                                                    
                                                                                                    
                           
<?xpacket end="w"?></metadata>
<defs>
    <style>
      .cls-1 {
        fill: #fff;
        fill-rule: evenodd;
      }
    </style>
  </defs>
  <path id="Icon" class="cls-1" d="M460.484,1878.69l10.695,10.66,0.015-.01-0.012.02h0l0.054,0.09,1.761,1.76,21.232-21.16a2.586,2.586,0,0,0,0-3.66l-10.693-10.66a2.614,2.614,0,0,0-3.673,0l-21.232,21.16,1.83,1.83Zm23.969-14.67a1.754,1.754,0,0,1,2.419,0l4.424,4.41-2.413,2.41-4.43-4.41A1.712,1.712,0,0,1,484.453,1864.02Zm-3.544,3.53a1.758,1.758,0,0,1,2.414.01l4.428,4.4-2.423,2.41-4.422-4.4a1.724,1.724,0,0,1-.5-1.21A1.705,1.705,0,0,1,480.909,1867.55Zm-3.909,3.9a1.76,1.76,0,0,1,2.432,0l4.416,4.4-2.42,2.41L477,1873.85A1.7,1.7,0,0,1,477,1871.45Zm-6.881.71a1.75,1.75,0,0,1,2.424,0l7.5,7.48-2.42,2.41-7.507-7.48A1.7,1.7,0,0,1,470.119,1872.16Zm-1.183,7.32a1.763,1.763,0,0,1,2.418,0l4.425,4.41-2.421,2.41-4.427-4.41a1.672,1.672,0,0,1-.5-1.2A1.7,1.7,0,0,1,468.936,1879.48Zm18.758,28.87-16.479-16.41,0-.01-35.377-35.24a2.971,2.971,0,0,0-4.2,0l-5.772,5.75a2.951,2.951,0,0,0,0,4.18l34.064,33.94v0.01l17.789,17.72c0.24,0.24.8,0.79,15.189,6.6a1.48,1.48,0,0,0,1.908-1.99C488.464,1909.12,487.905,1908.56,487.694,1908.35Zm-53.242-37.36-6.485-6.46,5.772-5.75,6.482,6.46Zm46.83,45.85,5.014-5c0.957,1.91,2.575,5.32,4.241,8.89C486.833,1919.21,483.286,1917.73,481.282,1916.84Zm-23.27-14.36,0.022-.03h0l0.017-.01-10.7-10.67-0.017.02-1.833-1.83-18.558,18.49a2.586,2.586,0,0,0,0,3.66l10.7,10.66a2.606,2.606,0,0,0,3.674,0l18.554-18.49-1.837-1.83Zm-17.142,15.85-7.511-7.48a1.715,1.715,0,0,1-.006-2.4,1.753,1.753,0,0,1,2.434,0l7.5,7.47Zm4.376-4.36-4.117-4.1a1.7,1.7,0,0,1,0-2.41,1.758,1.758,0,0,1,2.422,0l3.365,3.35,0.788,0.72Zm3.9-3.88-4.115-4.11a1.659,1.659,0,0,1-.5-1.2,1.7,1.7,0,0,1,.5-1.21,1.763,1.763,0,0,1,2.418,0l4.115,4.11Zm3.553-3.54-4.118-4.1a1.716,1.716,0,0,1,0-2.41,1.752,1.752,0,0,1,2.425,0l4.114,4.1Z" transform="translate(-425.031 -1855)"/>
</svg>
