<svg id="Icon_copy_2" data-name="Icon copy 2" xmlns="http://www.w3.org/2000/svg" width="62.62" height="80" viewBox="0 0 62.62 80">
  <metadata><?xpacket begin="﻿" id="W5M0MpCehiHzreSzNTczkc9d"?>
<x:xmpmeta xmlns:x="adobe:ns:meta/" x:xmptk="Adobe XMP Core 5.6-c142 79.160924, 2017/07/13-01:06:39        ">
   <rdf:RDF xmlns:rdf="http://www.w3.org/1999/02/22-rdf-syntax-ns#">
      <rdf:Description rdf:about=""/>
   </rdf:RDF>
</x:xmpmeta>
                                                                                                    
                                                                                                    
                                                                                                    
                                                                                                    
                                                                                                    
                                                                                                    
                                                                                                    
                                                                                                    
                                                                                                    
                                                                                                    
                                                                                                    
                                                                                                    
                                                                                                    
                                                                                                    
                                                                                                    
                                                                                                    
                                                                                                    
                                                                                                    
                                                                                                    
                                                                                                    
                           
<?xpacket end="w"?></metadata>
<defs>
    <style>
      .cls-1, .cls-2, .cls-3 {
        fill: #fff;
      }

      .cls-1, .cls-2, .cls-4 {
        fill-rule: evenodd;
      }

      .cls-2, .cls-3, .cls-4 {
        stroke: #fff;
        stroke-width: 1px;
      }

      .cls-2, .cls-3 {
        opacity: 0.5;
      }

      .cls-4 {
        fill: none;
      }
    </style>
  </defs>
  <path id="mob_copy" data-name="mob copy" class="cls-1" d="M1467.55,1683.35a11.853,11.853,0,0,0-1.8-2.61,2.624,2.624,0,0,1-.5-0.62,5.138,5.138,0,0,1-1.69-4.13,3.8,3.8,0,0,1,.28-1.16h-25.83v-55h36.28v41.06c0.01,0.02.01,0.03,0.02,0.05,0.62,1.28,1.43,2.94,2.06,4.19a5.558,5.558,0,0,1,.97-0.51,4.176,4.176,0,0,1,1.28-.29v-48.51a5.811,5.811,0,0,0-5.78-5.82h-33.39a5.8,5.8,0,0,0-5.77,5.82v68.35a5.8,5.8,0,0,0,5.77,5.83h33.39a5.743,5.743,0,0,0,3.29-1.04,20.81,20.81,0,0,1-4.57-2.56C1468.45,1684.96,1467.76,1683.9,1467.55,1683.35Zm1.11-69.35a1,1,0,1,1-1,1A1,1,0,0,1,1468.66,1614Zm-20.25-.11h15.48v2.36h-15.48v-2.36Zm14.78,69.9H1449.1v-1.04h14.09v1.04Zm33.13-.04-0.45-2.44c0.06-6.27-4.38-12.91-4.38-12.91-1.57-3.95-5.84-2.19-5.84-2.19-2.9-2.82-5.04.52-5.04,0.52-3.26-2.64-5.11,1.29-5.11,1.29-0.43.08-6.96-11.27-7.3-11.15-1.37-1.68-4.77-2.58-2.75,2.49,4.08,8.49,6.56,12.69,6.56,12.69,0.04,0.6,4.59,7.44,3.03,8.31-1.19-.07-3.43-1.96-3.43-1.96-0.01.05-2.79-2.16-2.84-2.14-4.18-2.26-3.61,2.69-1.45,3.65,0.11,0.57.61,0.2,2.82,3.37,0.32,0.83,3.5,1.91,3.5,1.91a18.032,18.032,0,0,0,8.92,2.69c2.35,0.57,1.83,1.88,1.83,1.88l11.93-6.01h0Z" transform="translate(-1433.69 -1610)"/>
  <path id="Rectangle_13_copy_3" data-name="Rectangle 13 copy 3" class="cls-2" d="M1456.33,1668.67H1441V1662h30.67v6.67h-15.34Z" transform="translate(-1433.69 -1610)"/>
  <path id="Rectangle_13_copy" data-name="Rectangle 13 copy" class="cls-2" d="M1456.33,1641.33H1441V1626h30.67v15.33h-15.34Z" transform="translate(-1433.69 -1610)"/>
  <rect id="Rectangle_13_copy_2" data-name="Rectangle 13 copy 2" class="cls-3" x="7.31" y="34" width="14" height="14"/>
  <path id="Rectangle_13_copy_2-2" data-name="Rectangle 13 copy 2" class="cls-4" d="M1457.67,1644.67h14v14h-14v-14Z" transform="translate(-1433.69 -1610)"/>
</svg>
